<?xml version="1.0" standalone="no"?><!DOCTYPE svg PUBLIC "-//W3C//DTD SVG 1.1//EN" "http://www.w3.org/Graphics/SVG/1.1/DTD/svg11.dtd"><svg t="1744734192817" class="icon" viewBox="0 0 1061 1024" version="1.1" xmlns="http://www.w3.org/2000/svg" p-id="29287" xmlns:xlink="http://www.w3.org/1999/xlink" width="33.15625" height="32"><path d="M519.585185 572.681481h-117.57037l-22.755556 68.266667H307.2l121.362963-326.162963h60.681481l121.362963 326.162963h-72.059259l-18.962963-68.266667zM417.185185 519.585185h83.437037l-41.718518-121.362963-41.718519 121.362963zM690.251852 640.948148h-68.266667V314.785185h68.266667v326.162963z" p-id="29288" fill="#ffffff"></path><path d="M530.962963 7.585185C257.896296 7.585185 34.133333 227.555556 34.133333 500.622222S257.896296 997.451852 530.962963 997.451852s496.82963-223.762963 496.82963-496.82963S804.02963 7.585185 530.962963 7.585185zM530.962963 948.148148C284.444444 948.148148 83.437037 747.140741 83.437037 500.622222S284.444444 53.096296 530.962963 53.096296s447.525926 201.007407 447.525926 447.525926S777.481481 948.148148 530.962963 948.148148z" p-id="29289" fill="#ffffff"></path></svg>