<?xml version="1.0" standalone="no"?><!DOCTYPE svg PUBLIC "-//W3C//DTD SVG 1.1//EN" "http://www.w3.org/Graphics/SVG/1.1/DTD/svg11.dtd"><svg t="1744731803298" class="icon" viewBox="0 0 1024 1024" version="1.1" xmlns="http://www.w3.org/2000/svg" p-id="24417" xmlns:xlink="http://www.w3.org/1999/xlink" width="32" height="32"><path d="M256 320H32a32 32 0 1 1 0-64h224V32a32 32 0 1 1 64 0v224h384V32a32 32 0 1 1 64 0v224h224a32 32 0 1 1 0 64h-224v384h224a32 32 0 1 1 0 64h-224v224a32 32 0 1 1-64 0v-224H320v224a32 32 0 1 1-64 0v-224H32a32 32 0 1 1 0-64h224V320z m64 0v384h384V320H320z" fill="#e0620d" p-id="24418"></path></svg>