<?xml version="1.0" standalone="no"?><!DOCTYPE svg PUBLIC "-//W3C//DTD SVG 1.1//EN" "http://www.w3.org/Graphics/SVG/1.1/DTD/svg11.dtd"><svg t="1744706136556" class="icon" viewBox="0 0 1024 1024" version="1.1" xmlns="http://www.w3.org/2000/svg" p-id="7948" xmlns:xlink="http://www.w3.org/1999/xlink" width="32" height="32"><path d="M708.405 421.91c-13.109 0-23.962 4.981-32.559 14.942-8.6 9.963-12.898 22.441-12.898 37.435 0 16.358 4.193 29.334 12.584 38.929 8.388 9.595 19.976 14.393 34.761 14.393 12.792 0 23.539-4.377 32.244-13.134 8.703-8.754 13.056-19.371 13.056-31.852 0-17.511-4.326-32.008-12.977-43.491-8.651-11.481-20.054-17.222-34.211-17.222zM448.09 516.599c-13.842 0-25.063 4.719-33.66 14.156-8.6 9.438-12.898 20.605-12.898 33.503 0 16.044 4.271 29.782 12.819 41.21 8.545 11.431 19.897 17.145 34.053 17.145 13.421 0 24.326-4.928 32.716-14.785 8.388-9.855 12.583-22.544 12.583-38.064 0-16.775-3.959-29.831-11.875-39.165-7.918-9.333-19.164-14-33.738-14z" p-id="7949"></path><path d="M922.888 261.441H96.012c-17.6 0-32 14.4-32 32v437.118c0 17.6 14.4 32 32 32h826.876c17.6 0 32-14.4 32-32V293.441c0-17.6-14.4-32-32-32zM280.891 644.004h-30.515v-208.41c-4.824 4.825-12.976 10.224-24.458 16.201s-22.099 10.172-31.851 12.583v-30.2c12.897-3.563 26.685-9.253 41.367-17.066 14.68-7.811 25.953-15.178 33.817-22.099h11.64v248.991z m222.329-18.875c-14.524 15.312-33.058 22.965-55.602 22.965-24.749 0-44.174-9.674-58.276-29.021-14.104-19.347-21.156-46.794-21.156-82.341 0-42.992 9.253-77.151 27.762-102.475 18.506-25.324 42.862-37.985 73.062-37.985 17.302 0 30.88 2.359 40.738 7.078v28.312c-12.689-6.5-25.953-9.752-39.794-9.752-21.077 0-38.013 9.177-50.805 27.526-12.795 18.351-19.295 43.412-19.504 75.185h0.787c11.534-22.336 29.937-33.503 55.209-33.503 21.077 0 37.907 6.87 50.49 20.605 12.583 13.738 18.875 31.984 18.875 54.737-0.001 23.805-7.264 43.36-21.786 58.669z m88.947 16.752c-3.881 3.932-8.808 5.898-14.785 5.898-5.768 0-10.565-1.967-14.392-5.898-3.829-3.933-5.741-8.624-5.741-14.078 0-5.662 1.938-10.433 5.819-14.313 3.878-3.878 8.703-5.819 14.471-5.819 5.871 0 10.747 1.966 14.628 5.898 3.878 3.933 5.82 8.678 5.82 14.234 0 5.454-1.942 10.145-5.82 14.078z m0-141.483c-3.881 3.88-8.808 5.819-14.785 5.819-5.662 0-10.436-1.939-14.313-5.819-3.881-3.879-5.819-8.598-5.819-14.157 0-5.662 1.99-10.381 5.977-14.156 3.984-3.775 8.755-5.663 14.313-5.663 5.662 0 10.484 1.915 14.471 5.741 3.984 3.829 5.978 8.521 5.978 14.077-0.002 5.561-1.944 10.279-5.822 14.158z m169.56 111.362c-17.616 24.223-41.996 36.334-73.14 36.334-17.093 0-31.563-2.78-43.412-8.337v-28.784c13.421 7.762 27.892 11.64 43.412 11.64 21.81 0 38.718-8.597 50.727-25.796 12.005-17.195 18.009-41.627 18.009-73.297l-0.314 0.157-0.314-0.157c-10.695 20.345-28.681 30.515-53.95 30.515-20.448 0-37.384-7.024-50.805-21.077-13.424-14.051-20.133-32.296-20.133-54.737 0-23.908 7.338-43.542 22.021-58.905 14.68-15.36 33.711-23.043 57.096-23.043 24.223 0 43.149 9.516 56.782 28.548 13.63 19.032 20.447 46.743 20.447 83.128-0.002 44.983-8.809 79.588-26.426 103.811z" p-id="7950"></path></svg>