<?xml version="1.0" standalone="no"?><!DOCTYPE svg PUBLIC "-//W3C//DTD SVG 1.1//EN" "http://www.w3.org/Graphics/SVG/1.1/DTD/svg11.dtd"><svg class="icon" width="32px" height="32.00px" viewBox="0 0 1024 1024" version="1.1" xmlns="http://www.w3.org/2000/svg"><path fill="#000000" d="M512 554.666667h17.066667c29.866667 0 38.4 0 46.933333-4.266667 8.533333-4.266667 12.8-8.533333 12.8-12.8 4.266667-8.533333 4.266667-17.066667 4.266667-46.933333V366.933333c0-29.866667 0-38.4-4.266667-46.933333-4.266667-8.533333-8.533333-12.8-12.8-12.8-8.533333-8.533333-17.066667-8.533333-46.933333-8.533333H281.6c-29.866667 0-38.4 0-46.933333 4.266666-8.533333 4.266667-12.8 8.533333-17.066667 17.066667-4.266667 8.533333-4.266667 17.066667-4.266667 46.933333v123.733334c0 29.866667 0 38.4 4.266667 46.933333 4.266667 8.533333 8.533333 12.8 12.8 12.8 12.8 4.266667 21.333333 4.266667 51.2 4.266667H298.666667c12.8 0 21.333333 8.533333 21.333333 21.333333s-8.533333 21.333333-21.333333 21.333333h-17.066667c-38.4 0-51.2-4.266667-64-12.8s-29.866667-17.066667-34.133333-29.866666c-8.533333-12.8-12.8-29.866667-12.8-68.266667V366.933333c0-38.4 4.266667-55.466667 12.8-68.266666 4.266667-12.8 17.066667-25.6 29.866666-29.866667 12.8-8.533333 29.866667-12.8 68.266667-12.8h251.733333c38.4 0 51.2 4.266667 64 12.8 12.8 8.533333 25.6 17.066667 34.133334 34.133333s8.533333 25.6 8.533333 64v123.733334c0 38.4-4.266667 51.2-12.8 64s-17.066667 25.6-34.133333 34.133333-25.6 8.533333-64 8.533333H512c-12.8 0-21.333333-8.533333-21.333333-21.333333s8.533333-21.333333 21.333333-21.333333z m213.333333-85.333334c-12.8 0-21.333333-8.533333-21.333333-21.333333s8.533333-21.333333 21.333333-21.333333h17.066667c38.4 0 51.2 4.266667 64 12.8 12.8 8.533333 25.6 17.066667 34.133333 34.133333 8.533333 12.8 12.8 25.6 12.8 64v123.733333c0 38.4-4.266667 51.2-12.8 64-8.533333 12.8-17.066667 25.6-34.133333 34.133334-12.8 8.533333-25.6 12.8-64 12.8h-251.733333c-38.4 0-51.2-4.266667-64-12.8-12.8-8.533333-25.6-17.066667-34.133334-34.133334-4.266667-12.8-8.533333-29.866667-8.533333-68.266666v-123.733334c0-38.4 4.266667-51.2 12.8-64s17.066667-25.6 34.133333-34.133333 25.6-12.8 64-12.8h17.066667c12.8 0 21.333333 8.533333 21.333333 21.333333s-8.533333 21.333333-21.333333 21.333334h-17.066667c-29.866667 0-38.4 0-46.933333 4.266666-8.533333 4.266667-12.8 8.533333-12.8 12.8-8.533333 17.066667-8.533333 25.6-8.533333 55.466667v123.733333c0 29.866667 0 38.4 4.266666 46.933334 4.266667 8.533333 8.533333 12.8 12.8 12.8 8.533333 4.266667 17.066667 4.266667 46.933334 4.266666h251.733333c29.866667 0 38.4 0 46.933333-4.266666 8.533333-4.266667 12.8-8.533333 12.8-12.8 4.266667-8.533333 4.266667-17.066667 4.266667-46.933334v-123.733333c0-29.866667 0-38.4-4.266667-46.933333-4.266667-8.533333-8.533333-12.8-12.8-12.8-8.533333-8.533333-17.066667-8.533333-46.933333-8.533334H725.333333z" /></svg>