<?xml version="1.0" standalone="no"?><!DOCTYPE svg PUBLIC "-//W3C//DTD SVG 1.1//EN" "http://www.w3.org/Graphics/SVG/1.1/DTD/svg11.dtd"><svg class="icon" width="32px" height="32.00px" viewBox="0 0 1024 1024" version="1.1" xmlns="http://www.w3.org/2000/svg"><path fill="#000000" d="M716.8 905.344a78.464 78.464 0 0 1-37.12-9.344L524.8 814.976a27.264 27.264 0 0 0-25.6 0L344.32 896a78.848 78.848 0 0 1-113.92-82.944l29.568-172.16a27.776 27.776 0 0 0-8.064-24.704l-125.568-121.984a78.848 78.848 0 0 1 43.648-134.528l172.928-25.6a28.032 28.032 0 0 0 20.992-15.36l76.8-156.672a78.976 78.976 0 0 1 141.568 0l76.8 156.672a28.032 28.032 0 0 0 20.992 15.36l172.928 25.6a78.848 78.848 0 0 1 43.648 134.528l-125.056 121.984a27.776 27.776 0 0 0-8.064 24.704L793.6 813.056a78.976 78.976 0 0 1-76.8 92.288zM512 169.6a27.52 27.52 0 0 0-25.6 15.488l-76.8 156.8a79.104 79.104 0 0 1-59.392 43.136L177.28 409.6a27.776 27.776 0 0 0-15.36 47.616l125.056 121.984a78.464 78.464 0 0 1 22.656 69.76l-29.44 172.8a27.776 27.776 0 0 0 40.448 29.312l154.624-81.28a79.232 79.232 0 0 1 73.472 0L704 851.072a27.776 27.776 0 0 0 40.448-29.312l-29.44-172.288a78.464 78.464 0 0 1 22.656-69.76l125.056-121.984A27.776 27.776 0 0 0 846.72 409.6l-172.928-25.6A79.104 79.104 0 0 1 614.4 341.888l-76.8-156.8a27.136 27.136 0 0 0-25.6-15.488z" /></svg>