<?xml version="1.0" standalone="no"?><!DOCTYPE svg PUBLIC "-//W3C//DTD SVG 1.1//EN" "http://www.w3.org/Graphics/SVG/1.1/DTD/svg11.dtd"><svg class="icon" width="32px" height="32.00px" viewBox="0 0 1024 1024" version="1.1" xmlns="http://www.w3.org/2000/svg"><path fill="#000000" d="M643.839598 226.880498A372.927767 372.927767 0 0 0 492.287692 67.200598 207.42387 207.42387 0 0 1 645.375597 0.00064a206.975871 206.975871 0 0 1 206.399871 227.775858 293.503817 293.503817 0 0 0-207.87187-0.896z m1.535999-172.031892c-20.223987 0-39.999975 4.031997-58.431964 11.519993A420.799737 420.799737 0 0 1 670.079581 161.920539a349.119782 349.119782 0 0 1 119.359926-5.759997 152.895904 152.895904 0 0 0-143.99991-101.311936zM346.431783 815.42413l-12.351992 41.727974a18.687988 18.687988 0 0 0 5.247997 18.943988c19.967988 19.199988 23.743985 47.55197 9.215994 70.399956l-42.623973 67.327958a23.423985 23.423985 0 0 1-19.647988 10.175994 25.215984 25.215984 0 0 1-10.943993-2.559998c-10.879993-5.311997-14.655991-17.535989-8.575995-27.135983l42.623974-67.455958a18.687988 18.687988 0 0 0-3.199998-23.743985c-15.74399-15.23199-21.759986-36.159977-15.743991-56.127965l9.215995-31.551981H243.839848l21.503986-73.599954C114.175929 711.168196 0 570.432283 0 401.344389 0 209.984509 146.559908 54.720606 327.295795 54.656606 508.159682 54.656606 654.719591 209.920509 654.719591 401.280389c0 170.687893-116.351927 312.511805-269.503832 341.375787l25.727984 72.703954H346.431783z m-30.207981-52.223967l17.855989-0.256-0.703999-2.047999a55.039966 55.039966 0 0 1 41.599974-72.063955C505.279684 664.256225 599.679625 543.2963 599.679625 401.280389c0-160.895899-122.239924-291.839818-272.44783-291.839817C177.023889 109.440572 54.847966 240.44849 54.847966 401.280389c0 140.159912 93.183942 260.735837 221.439861 286.719821 14.911991 3.007998 28.031982 12.287992 35.967978 25.407984a54.527966 54.527966 0 0 1 5.695996 43.775973l-1.727999 5.951996zM1023.99936 532.800307c0 153.279904-110.399931 279.231825-251.327843 293.247817l11.455993 41.727974h-27.903983l-5.375996 18.303988a6.783996 6.783996 0 0 0 0 3.967998 7.999995 7.999995 0 0 0 2.175998 3.647997c6.527996 6.207996 10.239994 13.759991 12.351993 21.631987 3.071998 11.391993 1.919999 23.679985-4.927997 34.559978l-29.823982 47.039971a23.423985 23.423985 0 0 1-19.647987 10.175994 25.215984 25.215984 0 0 1-10.943994-2.559999 20.031987 20.031987 0 0 1-8.959994-8.959994 17.919989 17.919989 0 0 1 0.384-18.239989l29.887981-46.911971a6.911996 6.911996 0 0 0 1.151999-4.927996 7.487995 7.487995 0 0 0-2.367998-4.607998 44.863972 44.863972 0 0 1-12.671992-44.799972l2.367998-8.191994v-0.128h-28.927982l10.559994-46.271971C625.279609 807.296135 567.551645 768.00016 527.55167 713.472194c18.751988-13.439992 36.479977-28.927982 52.927967-46.271971 67.071958-71.039956 103.999935-165.375897 103.999935-265.727834 0-51.391968-9.727994-101.247937-28.223982-147.199908 28.159982-10.367994 58.623963-15.99999 90.239943-15.99999C899.839438 238.272491 1023.99936 370.112409 1023.99936 532.800307z m-256.831839 238.655851c115.199928-11.455993 201.983874-114.111929 201.855873-238.655851 0-132.095917-99.839938-239.67985-222.591861-239.67985a195.199878 195.199878 0 0 0-20.031987 0.959999c8.447995 34.815978 12.799992 70.719956 12.799992 107.263933 0 114.431928-42.239974 222.207861-118.975926 303.48781a404.287747 404.287747 0 0 1-13.951991 14.079992c28.031982 24.319985 61.055962 41.215974 96.63994 48.831969a55.039966 55.039966 0 0 1 31.16798 19.199988 55.231965 55.231965 0 0 1 33.08798-15.48799zM284.159822 141.376552a27.391983 27.391983 0 1 1 12.607993 53.247966c-0.448 0.128-50.431968 12.159992-94.079942 48.25597-59.071963 49.023969-79.74395 116.223927-61.439961 199.679875a27.519983 27.519983 0 0 1-26.879983 33.27998 27.455983 27.455983 0 0 1-26.751984-21.439987c-28.799982-130.879918 27.647983-210.175869 79.99995-253.567842a308.607807 308.607807 0 0 1 116.543927-59.519962z m638.975601 409.791744a27.519983 27.519983 0 0 1 20.607987 32.959979c-14.847991 64.44796-63.23196 119.679925-129.279919 147.647908a27.391983 27.391983 0 0 1-21.503987-50.559969c49.919969-21.119987 86.271946-62.079961 97.27994-109.439931a27.327983 27.327983 0 0 1 32.895979-20.607987z"  /></svg>