<?xml version="1.0" standalone="no"?><!DOCTYPE svg PUBLIC "-//W3C//DTD SVG 1.1//EN" "http://www.w3.org/Graphics/SVG/1.1/DTD/svg11.dtd"><svg class="icon" width="32px" height="32.00px" viewBox="0 0 1024 1024" version="1.1" xmlns="http://www.w3.org/2000/svg"><path fill="#000000" d="M814.545455 1024H209.454545c-115.688727 0-209.454545-70.493091-209.454545-186.181818a209.268364 209.268364 0 0 1 140.8-197.632 139.473455 139.473455 0 0 1 69.469091-109.381818C209.803636 524.567273 209.454545 518.283636 209.454545 511.930182a302.405818 302.405818 0 0 1 603.927273-23.272727h-0.628363a278.504727 278.504727 0 0 1 69.166545 150.993454A209.314909 209.314909 0 0 1 1024 837.818182c0 115.688727-93.765818 186.181818-209.454545 186.181818zM512 302.545455a209.454545 209.454545 0 0 0-209.454545 209.454545c0 0.721455 0.162909 1.373091 0.162909 2.094545a139.962182 139.962182 0 0 1 58.484363 24.925091 278.272 278.272 0 0 1 333.963637-128.232727A209.152 209.152 0 0 0 512 302.545455z m372.363636 442.181818a7.68 7.68 0 0 0-4.864-3.095273c-1.093818-0.721455-2.117818-1.605818-3.234909-2.327273a4.421818 4.421818 0 0 0 3.234909 2.327273c1.442909 1.000727 2.885818 2.048 4.282182 3.095273h-106.170182a186.181818 186.181818 0 1 0-352.605091-116.363637h-105.774545a46.405818 46.405818 0 0 0-86.807273 22.993455c0 0.977455 0.232727 1.908364 0.302546 2.862545V698.181818H186.181818v25.6A116.363636 116.363636 0 0 0 93.090909 837.818182c0 64.256 52.107636 93.090909 116.363636 93.090909h605.09091c64.256 0 116.363636-28.834909 116.363636-93.090909a115.781818 115.781818 0 0 0-47.127273-93.090909H884.363636zM512 0a46.545455 46.545455 0 0 1 46.545455 46.545455v69.818181a46.545455 46.545455 0 0 1-93.09091 0V46.545455a46.545455 46.545455 0 0 1 46.545455-46.545455z m395.636364 442.181818h69.818181a46.545455 46.545455 0 0 1 0 93.090909h-69.818181a46.545455 46.545455 0 0 1 0-93.090909zM46.545455 442.181818h69.818181a46.545455 46.545455 0 0 1 0 93.090909H46.545455a46.545455 46.545455 0 0 1 0-93.090909zM872.145455 140.218182a46.545455 46.545455 0 0 1 0 65.838545l-49.361455 49.361455a46.545455 46.545455 0 1 1-65.838545-65.838546l49.361454-49.361454a46.545455 46.545455 0 0 1 65.838546 0z m-719.127273-11.101091a45.824 45.824 0 0 0 0 64.814545l48.593454 48.593455a45.824 45.824 0 1 0 64.814546-64.791273L217.809455 129.117091a45.800727 45.800727 0 0 0-64.698182 0z" /></svg>