<?xml version="1.0" standalone="no"?><!DOCTYPE svg PUBLIC "-//W3C//DTD SVG 1.1//EN" "http://www.w3.org/Graphics/SVG/1.1/DTD/svg11.dtd"><svg class="icon" width="32px" height="32.00px" viewBox="0 0 1024 1024" version="1.1" xmlns="http://www.w3.org/2000/svg"><path fill="#000000" d="M593.92 92.16a30.72 30.72 0 0 0 0 61.44h239.104L564.0192 422.6048a30.72 30.72 0 0 0 43.4176 43.4176L870.4 203.0592V430.08a30.72 30.72 0 0 0 61.44 0V92.16zM459.9808 557.9776a30.72 30.72 0 0 0-43.4176 0L153.6 820.9408V593.92a30.72 30.72 0 0 0-61.44 0v337.92h337.92a30.72 30.72 0 0 0 0-61.44H190.976l269.0048-269.0048a30.72 30.72 0 0 0 0-43.4176z" /></svg>