<?xml version="1.0" standalone="no"?><!DOCTYPE svg PUBLIC "-//W3C//DTD SVG 1.1//EN" "http://www.w3.org/Graphics/SVG/1.1/DTD/svg11.dtd"><svg t="1744729568058" class="icon" viewBox="0 0 1024 1024" version="1.1" xmlns="http://www.w3.org/2000/svg" p-id="5421" xmlns:xlink="http://www.w3.org/1999/xlink" width="32" height="32"><path d="M860.7744 367.9232c2.8672 1.28 5.632 2.6624 8.448 4.1472 16.6912 8.9088 29.7984 22.016 38.7072 38.7072 8.9088 16.6912 13.6704 33.28 13.6704 78.848v249.4976c0 45.6704-4.7616 62.208-13.6704 78.848-8.9088 16.7424-22.016 29.8496-38.7072 38.7584-16.6912 8.9088-33.28 13.6704-78.848 13.6704H438.4256c-45.6704 0-62.208-4.7616-78.848-13.6704a93.0304 93.0304 0 0 1-38.7584-38.7072 110.9504 110.9504 0 0 1-4.096-8.3968c13.2096 5.6832 29.184 8.96 60.5696 9.472l9.9328 0.1024h351.8464c45.6704 0 62.208-4.7616 78.848-13.6704 16.7424-8.9088 29.8496-22.016 38.7584-38.7072 8.192-15.4112 12.9024-30.72 13.568-68.864l0.1024-10.0352V438.4768c0-38.144-3.328-55.9616-9.6256-70.5536z m-102.4-102.4c2.8672 1.28 5.632 2.6624 8.448 4.1472 16.6912 8.9088 29.7984 22.016 38.7072 38.7072 8.9088 16.6912 13.6704 33.28 13.6704 78.848v249.4976c0 45.6704-4.7616 62.208-13.6704 78.848-8.9088 16.7424-22.016 29.8496-38.7072 38.7584-16.6912 8.9088-33.28 13.6704-78.848 13.6704H336.0256c-45.6704 0-62.208-4.7616-78.848-13.6704a93.0304 93.0304 0 0 1-38.7584-38.7072 110.9504 110.9504 0 0 1-4.096-8.3968c13.2096 5.6832 29.184 8.96 60.5696 9.472l9.9328 0.1024h351.8464c45.6704 0 62.208-4.7616 78.848-13.6704 16.7424-8.9088 29.8496-22.016 38.7584-38.7072 8.192-15.4112 12.9024-30.72 13.568-68.864l0.1024-10.0352V336.0768c0-38.144-3.328-55.9616-9.6256-70.5536zM585.5232 153.6c45.6704 0 62.208 4.7616 78.848 13.6704 16.7424 8.9088 29.8496 22.016 38.7584 38.7072 8.9088 16.6912 13.6704 33.28 13.6704 78.848v249.4976c0 45.6704-4.7616 62.208-13.6704 78.848-8.9088 16.7424-22.016 29.8496-38.7072 38.7584-16.6912 8.9088-33.28 13.6704-78.848 13.6704H233.6256c-45.6704 0-62.208-4.7616-78.848-13.6704a93.0304 93.0304 0 0 1-38.7584-38.7072c-8.9088-16.6912-13.6704-33.28-13.6704-78.848V284.8256c0-45.6704 4.7616-62.208 13.6704-78.848 8.9088-16.7424 22.016-29.8496 38.7072-38.7584 16.6912-8.9088 33.28-13.6704 78.848-13.6704h351.8976z" p-id="5422"></path></svg>