<?xml version="1.0" standalone="no"?><!DOCTYPE svg PUBLIC "-//W3C//DTD SVG 1.1//EN" "http://www.w3.org/Graphics/SVG/1.1/DTD/svg11.dtd"><svg t="1744729665984" class="icon" viewBox="0 0 1024 1024" version="1.1" xmlns="http://www.w3.org/2000/svg" p-id="9542" xmlns:xlink="http://www.w3.org/1999/xlink" width="32" height="32"><path d="M512 695.242105a183.242105 183.242105 0 1 1 0-366.48421 183.242105 183.242105 0 0 1 0 366.48421z m0 32.336842a215.578947 215.578947 0 1 0 0-431.157894 215.578947 215.578947 0 0 0 0 431.157894zM511.865263 168.421053h0.269474a20.210526 20.210526 0 1 1 0 40.421052h-0.269474a20.210526 20.210526 0 1 1 0-40.421052z m-80.491789 29.696a20.210526 20.210526 0 0 1-12.988632 25.438315l-0.215579 0.080843a20.210526 20.210526 0 1 1-12.503579-38.426948l0.269474-0.107789a20.210526 20.210526 0 0 1 25.438316 13.015579z m161.253052 0a20.210526 20.210526 0 0 1 25.438316-13.015579l0.269474 0.107789a20.210526 20.210526 0 0 1-12.503579 38.426948l-0.215579-0.080843a20.210526 20.210526 0 0 1-12.988632-25.438315z m-254.248421 40.286315a20.210526 20.210526 0 0 1-4.473263 28.240843l-0.188631 0.134736a20.210526 20.210526 0 1 1-23.794527-32.66021l0.215579-0.161684a20.210526 20.210526 0 0 1 28.240842 4.446315z m347.24379 0a20.210526 20.210526 0 0 1 28.240842-4.446315l0.215579 0.161684a20.210526 20.210526 0 0 1-23.794527 32.66021l-0.188631-0.134736a20.210526 20.210526 0 0 1-4.473263-28.240843z m76.045473 67.098948a20.210526 20.210526 0 0 1 28.213895 4.419368l0.161684 0.215579a20.210526 20.210526 0 0 1-32.687158 23.767579l-0.134736-0.188631a20.210526 20.210526 0 0 1 4.446315-28.240843z m-499.334736 0a20.210526 20.210526 0 0 1 4.446315 28.213895l-0.134736 0.188631a20.210526 20.210526 0 1 1-32.687158-23.767579l0.161684-0.215579a20.210526 20.210526 0 0 1 28.213895-4.446316z m-51.658106 87.201684a20.210526 20.210526 0 0 1 12.961685 25.465263l-0.080843 0.215579a20.210526 20.210526 0 1 1-38.453894-12.449684l0.107789-0.269474a20.210526 20.210526 0 0 1 25.465263-12.961684z m602.650948 0a20.210526 20.210526 0 0 1 25.465263 12.961684l0.107789 0.269474a20.210526 20.210526 0 1 1-38.453894 12.449684l-0.080843-0.215579a20.210526 20.210526 0 0 1 12.961685-25.465263zM188.631579 491.654737a20.210526 20.210526 0 0 1 20.210526 20.210526v0.269474a20.210526 20.210526 0 1 1-40.421052 0v-0.269474a20.210526 20.210526 0 0 1 20.210526-20.210526z m646.736842 0a20.210526 20.210526 0 0 1 20.210526 20.210526v0.269474a20.210526 20.210526 0 0 1-40.421052 0v-0.269474a20.210526 20.210526 0 0 1 20.210526-20.210526zM198.117053 592.626526a20.210526 20.210526 0 0 1 25.438315 12.988632l0.080843 0.215579a20.210526 20.210526 0 1 1-38.426948 12.503579l-0.107789-0.269474a20.210526 20.210526 0 0 1 13.015579-25.438316z m627.765894 0a20.210526 20.210526 0 0 1 13.015579 25.438316l-0.107789 0.269474a20.210526 20.210526 0 1 1-38.426948-12.503579l0.080843-0.215579a20.210526 20.210526 0 0 1 25.438315-12.988632z m-587.452631 92.995369a20.210526 20.210526 0 0 1 28.213895 4.473263l0.134736 0.188631a20.210526 20.210526 0 1 1-32.66021 23.794527l-0.161684-0.215579a20.210526 20.210526 0 0 1 4.446315-28.240842z m547.166316 0a20.210526 20.210526 0 0 1 4.446315 28.240842l-0.161684 0.215579a20.210526 20.210526 0 0 1-32.66021-23.794527l0.134736-0.188631a20.210526 20.210526 0 0 1 28.240843-4.473263z m-480.121264 76.045473a20.210526 20.210526 0 0 1 28.240843-4.446315l0.188631 0.134736a20.210526 20.210526 0 0 1-23.767579 32.687158l-0.215579-0.161684a20.210526 20.210526 0 0 1-4.446316-28.213895z m413.049264 0a20.210526 20.210526 0 0 1-4.446316 28.213895l-0.215579 0.161684a20.210526 20.210526 0 0 1-23.767579-32.687158l0.188631-0.134736a20.210526 20.210526 0 0 1 28.240843 4.446315z m-325.820632 51.658106a20.210526 20.210526 0 0 1 25.465263-12.961685l0.215579 0.080843a20.210526 20.210526 0 0 1-12.449684 38.453894l-0.269474-0.107789a20.210526 20.210526 0 0 1-12.961684-25.465263z m238.592 0a20.210526 20.210526 0 0 1-12.961684 25.465263l-0.269474 0.107789a20.210526 20.210526 0 1 1-12.449684-38.453894l0.215579-0.080843a20.210526 20.210526 0 0 1 25.465263 12.961685zM491.654737 835.368421a20.210526 20.210526 0 0 1 20.210526-20.210526h0.269474a20.210526 20.210526 0 1 1 0 40.421052h-0.269474a20.210526 20.210526 0 0 1-20.210526-20.210526z" p-id="9543"></path><path d="M512 587.452632a75.452632 75.452632 0 1 1 0-150.905264 75.452632 75.452632 0 0 1 0 150.905264z m0 32.336842a107.789474 107.789474 0 1 0 0-215.578948 107.789474 107.789474 0 0 0 0 215.578948z" p-id="9544"></path></svg>