<?xml version="1.0" standalone="no"?><!DOCTYPE svg PUBLIC "-//W3C//DTD SVG 1.1//EN" "http://www.w3.org/Graphics/SVG/1.1/DTD/svg11.dtd"><svg t="1744729662884" class="icon" viewBox="0 0 1024 1024" version="1.1" xmlns="http://www.w3.org/2000/svg" p-id="9384" xmlns:xlink="http://www.w3.org/1999/xlink" width="32" height="32"><path d="M512.134737 168.421053h-0.269474a20.210526 20.210526 0 1 0 0 40.421052h0.269474a20.210526 20.210526 0 1 0 0-40.421052z m-93.749895 55.134315a20.210526 20.210526 0 1 0-12.449684-38.453894l-0.269474 0.107789a20.210526 20.210526 0 0 0 12.503579 38.426948l0.215579-0.080843z m199.68-38.453894a20.210526 20.210526 0 0 0-12.449684 38.453894l0.215579 0.080843a20.210526 20.210526 0 1 0 12.503579-38.426948l-0.269474-0.107789z m95.797895 48.855579a20.210526 20.210526 0 0 0-23.767579 32.687158l0.188631 0.134736a20.210526 20.210526 0 1 0 23.794527-32.66021l-0.215579-0.161684z m76.018526 75.964631a20.210526 20.210526 0 0 0-32.66021 23.794527l0.134736 0.188631a20.210526 20.210526 0 0 0 32.687158-23.767579l-0.161684-0.215579zM223.663158 418.169263a20.210526 20.210526 0 1 0-38.426947-12.503579l-0.10779 0.269474a20.210526 20.210526 0 0 0 38.453895 12.449684l0.080842-0.215579z m615.154526-12.503579a20.210526 20.210526 0 1 0-38.426947 12.503579l0.080842 0.215579a20.210526 20.210526 0 0 0 38.453895-12.449684l-0.10779-0.269474zM208.842105 511.892211a20.210526 20.210526 0 1 0-40.421052-0.026948v0.269474a20.210526 20.210526 0 1 0 40.421052 0v-0.269474z m646.736842-0.026948a20.210526 20.210526 0 0 0-40.421052 0v0.269474a20.210526 20.210526 0 1 0 40.421052 0v-0.269474zM223.555368 605.615158a20.210526 20.210526 0 1 0-38.453894 12.449684l0.107789 0.269474a20.210526 20.210526 0 0 0 38.426948-12.503579l-0.080843-0.215579z m615.343158 12.449684a20.210526 20.210526 0 1 0-38.453894-12.449684l-0.080843 0.215579a20.210526 20.210526 0 1 0 38.426948 12.503579l0.107789-0.269474zM266.644211 690.122105a20.210526 20.210526 0 1 0-32.687158 23.767579l0.161684 0.215579a20.210526 20.210526 0 0 0 32.66021-23.794526l-0.134736-0.188632z m67.072 67.125895a20.210526 20.210526 0 1 0-23.794527 32.660211l0.215579 0.161684a20.210526 20.210526 0 0 0 23.767579-32.687158l-0.188631-0.134737z m84.453052 43.142737a20.210526 20.210526 0 1 0-12.503579 38.426947l0.269474 0.10779a20.210526 20.210526 0 1 0 12.449684-38.453895l-0.215579-0.080842z m200.165053 38.426947a20.210526 20.210526 0 1 0-12.503579-38.426947l-0.215579 0.080842a20.210526 20.210526 0 0 0 12.449684 38.453895l0.269474-0.10779z m-106.442105-23.632842a20.210526 20.210526 0 1 0-0.026948 40.421053h0.269474a20.210526 20.210526 0 0 0 0-40.421053h-0.269474z m73.027368-135.006316a183.242105 183.242105 0 0 1-241.071158-241.071158l-24.333474-24.279579a215.578947 215.578947 0 0 0 289.684211 289.684211l-24.306526-24.306526z m-61.062737-61.008842a107.789474 107.789474 0 0 1-118.999579-118.999579l35.43579 35.43579a75.641263 75.641263 0 0 0 48.128 48.128l35.435789 35.435789z m59.823158-130.694737l35.462737 35.43579a107.789474 107.789474 0 0 0-119.026526-119.026526l35.462736 35.435789a75.641263 75.641263 0 0 1 48.128 48.128z m-144.572632-144.626526a183.242105 183.242105 0 0 1 241.071158 241.071158l24.306527 24.306526a215.578947 215.578947 0 0 0-289.684211-289.68421l24.306526 24.306526zM264.299789 287.151158a16.168421 16.168421 0 1 1 22.851369-22.851369l472.549053 472.549053a16.168421 16.168421 0 1 1-22.851369 22.878316L264.299789 287.151158z" p-id="9385"></path></svg>