<?xml version="1.0" standalone="no"?><!DOCTYPE svg PUBLIC "-//W3C//DTD SVG 1.1//EN" "http://www.w3.org/Graphics/SVG/1.1/DTD/svg11.dtd"><svg class="icon" width="32px" height="32.00px" viewBox="0 0 1024 1024" version="1.1" xmlns="http://www.w3.org/2000/svg"><path fill="#000000" d="M832.699 704.3s-82.992 139.888-82.992 182.568c0 42.68 37.934 78.246 82.992 78.246 45.047 0 82.981-35.566 82.981-78.246 0.001-42.68-82.981-182.568-82.981-182.568zM858.773 564.399c14.228-14.227 14.228-37.934 0-52.163L408.266 73.579c-14.227-14.227-37.937-11.856-52.163 0-14.227 14.227-14.227 37.937 0 52.164l78.316 76.254-315.43 322.091c-14.227 14.227-14.227 37.944 0 52.172a35.951 35.951 0 0 0 9.244 6.669l327.456 320.545c21.343 18.961 52.164 18.961 71.135 0l323.514-332.827a35.943 35.943 0 0 0 8.435-6.248z m-661.362-15.137l288.746-296.885 296.971 289.16-585.717 7.725z"  /></svg>